<mxfile host="app.diagrams.net" modified="2021-12-16T08:19:47.299Z" agent="5.0 (Windows NT 10.0; Win64; x64) AppleWebKit/537.36 (KHTML, like Gecko) Chrome/92.0.4515.131 Safari/537.36" etag="cYy_4g_c7yr55Kj9lyui" version="15.9.6" type="github">
  <diagram id="2qeyQCbmPffhCebhITNP" name="第 1 页">
    <mxGraphModel dx="1038" dy="647" grid="1" gridSize="10" guides="1" tooltips="1" connect="1" arrows="1" fold="1" page="1" pageScale="1" pageWidth="827" pageHeight="1169" math="0" shadow="0">
      <root>
        <mxCell id="0" />
        <mxCell id="1" parent="0" />
        <mxCell id="GCJxsYK008IPCIfOtPau-4" style="edgeStyle=orthogonalEdgeStyle;rounded=0;orthogonalLoop=1;jettySize=auto;html=1;fontSize=30;strokeWidth=2;" edge="1" parent="1" source="GCJxsYK008IPCIfOtPau-1" target="GCJxsYK008IPCIfOtPau-3">
          <mxGeometry relative="1" as="geometry" />
        </mxCell>
        <mxCell id="GCJxsYK008IPCIfOtPau-1" value="ClassFiles" style="text;html=1;strokeColor=none;fillColor=none;align=center;verticalAlign=middle;whiteSpace=wrap;rounded=0;fontSize=30;" vertex="1" parent="1">
          <mxGeometry x="30" y="75" width="150" height="30" as="geometry" />
        </mxCell>
        <mxCell id="GCJxsYK008IPCIfOtPau-3" value="" style="shape=cube;whiteSpace=wrap;html=1;boundedLbl=1;backgroundOutline=1;darkOpacity=0.05;darkOpacity2=0.1;fontSize=30;strokeWidth=2;fillColor=#dae8fc;strokeColor=#6c8ebf;gradientColor=#7ea6e0;" vertex="1" parent="1">
          <mxGeometry x="354" y="50" width="296" height="80" as="geometry" />
        </mxCell>
        <mxCell id="GCJxsYK008IPCIfOtPau-5" value="Runtime Data Areas" style="rounded=0;whiteSpace=wrap;html=1;fontSize=26;strokeColor=#6c8ebf;strokeWidth=2;fillColor=#dae8fc;verticalAlign=bottom;fontStyle=1;gradientColor=#ffffff;" vertex="1" parent="1">
          <mxGeometry x="20" y="290" width="740" height="220" as="geometry" />
        </mxCell>
        <mxCell id="GCJxsYK008IPCIfOtPau-9" value="" style="rounded=0;whiteSpace=wrap;html=1;fontSize=30;strokeColor=default;strokeWidth=1;fillColor=#dae8fc;gradientColor=#7ea6e0;gradientDirection=north;" vertex="1" parent="1">
          <mxGeometry x="40" y="320" width="160" height="90" as="geometry" />
        </mxCell>
        <mxCell id="GCJxsYK008IPCIfOtPau-10" value="" style="rounded=0;whiteSpace=wrap;html=1;fontSize=30;strokeColor=default;strokeWidth=1;fillColor=#dae8fc;gradientColor=#7ea6e0;gradientDirection=north;" vertex="1" parent="1">
          <mxGeometry x="230" y="320" width="160" height="90" as="geometry" />
        </mxCell>
        <mxCell id="GCJxsYK008IPCIfOtPau-11" value="&amp;nbsp; Execution&lt;br style=&quot;font-size: 26px;&quot;&gt;&amp;nbsp; Engine" style="shape=cube;whiteSpace=wrap;html=1;boundedLbl=1;backgroundOutline=1;darkOpacity=0.05;darkOpacity2=0.1;fontSize=26;strokeColor=#000000;strokeWidth=2;fillColor=#dae8fc;gradientColor=#7ea6e0;align=left;gradientDirection=west;" vertex="1" parent="1">
          <mxGeometry x="40" y="580" width="490" height="130" as="geometry" />
        </mxCell>
        <mxCell id="GCJxsYK008IPCIfOtPau-12" value="JIT&lt;br style=&quot;font-size: 20px;&quot;&gt;Compiler" style="rounded=0;whiteSpace=wrap;html=1;fontSize=20;strokeColor=none;strokeWidth=2;fillColor=#cce5ff;gradientColor=#ffffff;" vertex="1" parent="1">
          <mxGeometry x="225" y="625" width="120" height="70" as="geometry" />
        </mxCell>
        <mxCell id="GCJxsYK008IPCIfOtPau-13" value="Garbage&lt;br&gt;Collector" style="rounded=0;whiteSpace=wrap;html=1;fontSize=20;strokeColor=none;strokeWidth=2;fillColor=#cce5ff;gradientColor=#ffffff;" vertex="1" parent="1">
          <mxGeometry x="370" y="625" width="120" height="70" as="geometry" />
        </mxCell>
        <mxCell id="GCJxsYK008IPCIfOtPau-14" value="" style="shape=flexArrow;endArrow=classic;html=1;rounded=0;fontSize=26;strokeWidth=2;exitX=0.25;exitY=1;exitDx=0;exitDy=0;endWidth=26;endSize=8.47;width=18;fillColor=#e1d5e7;strokeColor=#9673a6;" edge="1" parent="1" source="GCJxsYK008IPCIfOtPau-5">
          <mxGeometry width="50" height="50" relative="1" as="geometry">
            <mxPoint x="390" y="520" as="sourcePoint" />
            <mxPoint x="205" y="580" as="targetPoint" />
          </mxGeometry>
        </mxCell>
        <mxCell id="GCJxsYK008IPCIfOtPau-15" value="" style="shape=flexArrow;endArrow=classic;html=1;rounded=0;fontSize=26;strokeWidth=2;exitX=0.25;exitY=1;exitDx=0;exitDy=0;endWidth=26;endSize=8.47;width=18;fillColor=#e1d5e7;strokeColor=#9673a6;" edge="1" parent="1">
          <mxGeometry width="50" height="50" relative="1" as="geometry">
            <mxPoint x="160" y="580" as="sourcePoint" />
            <mxPoint x="160" y="510" as="targetPoint" />
          </mxGeometry>
        </mxCell>
      </root>
    </mxGraphModel>
  </diagram>
</mxfile>
